<svg width="41" height="41" viewBox="0 0 41 41" fill="none" xmlns="http://www.w3.org/2000/svg">
<path d="M41 20.5C41 31.8217 31.8217 41 20.5 41C9.17831 41 0 31.8217 0 20.5C0 9.17831 9.17831 0 20.5 0C31.8217 0 41 9.17831 41 20.5Z" fill="white"/>
<path d="M31.1315 26.3414C30.9288 26.158 30.6258 26.1466 30.4083 26.3083C30.3639 26.3414 25.9416 29.6111 20.5 29.6111C15.072 29.6111 10.6349 26.3414 10.5916 26.3083C10.3741 26.1466 10.0712 26.1603 9.86845 26.3414C9.66687 26.5236 9.62131 26.8242 9.76139 27.0566C9.90831 27.3003 13.4252 33.0278 20.5 33.0278C27.5748 33.0278 31.0928 27.3014 31.2386 27.0566C31.3786 26.8231 31.3342 26.5236 31.1315 26.3414Z" fill="#FFC700"/>
<path d="M27.9028 12.5278C26.3303 12.5278 25.0556 14.3124 25.0556 16.5139C25.0556 18.7154 26.3303 20.5 27.9028 20.5C29.4753 20.5 30.75 18.7154 30.75 16.5139C30.75 14.3124 29.4753 12.5278 27.9028 12.5278Z" fill="#FFC700"/>
<path d="M13.0971 12.5278C11.5246 12.5278 10.2499 14.3124 10.2499 16.5139C10.2499 18.7154 11.5246 20.5 13.0971 20.5C14.6696 20.5 15.9443 18.7154 15.9443 16.5139C15.9443 14.3124 14.6696 12.5278 13.0971 12.5278Z" fill="#FFC700"/>
</svg>
