<svg width="183" height="191" viewBox="0 0 183 191" fill="none" xmlns="http://www.w3.org/2000/svg">
<g filter="url(#filter0_d)">
<path d="M91.5 0L170.741 45.75V137.25L91.5 183L12.2587 137.25V45.75L91.5 0Z" fill="#FFC700"/>
</g>
<path d="M44.4976 122.601C44.4976 130.838 51.0873 137.427 59.3244 137.427H122.675C130.913 137.427 137.502 130.838 137.502 122.601C137.502 114.364 130.913 107.774 122.675 107.774H59.3244C51.0873 107.774 44.4976 114.513 44.4976 122.601Z" fill="#CFD0D1"/>
<path d="M59.3243 131.736C54.3821 131.736 50.3384 127.693 50.3384 122.75C50.3384 117.808 54.3821 113.764 59.3243 113.764H122.675C127.618 113.764 131.661 117.808 131.661 122.75C131.661 127.693 127.618 131.736 122.675 131.736H59.3243Z" fill="white"/>
<path d="M64.4168 127.094C66.8982 127.094 68.9098 125.082 68.9098 122.601C68.9098 120.119 66.8982 118.108 64.4168 118.108C61.9354 118.108 59.9238 120.119 59.9238 122.601C59.9238 125.082 61.9354 127.094 64.4168 127.094Z" fill="#27A2DE"/>
<path d="M82.0892 127.094C84.5706 127.094 86.5822 125.082 86.5822 122.601C86.5822 120.119 84.5706 118.108 82.0892 118.108C79.6078 118.108 77.5962 120.119 77.5962 122.601C77.5962 125.082 79.6078 127.094 82.0892 127.094Z" fill="#27A2DE"/>
<path d="M99.7615 127.094C102.243 127.094 104.255 125.082 104.255 122.601C104.255 120.119 102.243 118.108 99.7615 118.108C97.2801 118.108 95.2686 120.119 95.2686 122.601C95.2686 125.082 97.2801 127.094 99.7615 127.094Z" fill="#27A2DE"/>
<path d="M117.434 127.094C119.915 127.094 121.927 125.082 121.927 122.601C121.927 120.119 119.915 118.108 117.434 118.108C114.952 118.108 112.941 120.119 112.941 122.601C112.941 125.082 114.952 127.094 117.434 127.094Z" fill="#27A2DE"/>
<path d="M122.675 44.5725H59.3242V107.924H122.675V44.5725Z" fill="white"/>
<path d="M116.849 50.2726H65.1802V101.942H116.849V50.2726Z" fill="#FFBF5D"/>
<path d="M76.3975 97.7395V90.1014H78.644L74.0013 83.8112L69.5083 90.1014H71.7548V97.7395H76.3975Z" fill="white"/>
<path d="M88.978 97.7395V90.1014H91.2245L86.5817 83.8112L81.939 90.1014H84.3352V97.7395H88.978Z" fill="white"/>
<path d="M124.023 106.426V44.5726C124.023 43.8237 123.424 43.0749 122.526 43.0749H59.3245C58.5757 43.0749 57.8268 43.674 57.8268 44.5726V106.576C49.5897 107.175 43 114.214 43 122.601C43 131.587 50.3385 138.925 59.3245 138.925H122.676C131.661 138.925 139 131.587 139 122.601C138.85 114.214 132.261 107.175 124.023 106.426ZM60.6724 45.9204H121.028V106.276H60.6724V45.9204ZM122.526 136.08H59.3245C51.986 136.08 45.9953 130.089 45.9953 122.75C45.9953 115.412 51.986 109.421 59.3245 109.421H122.676C130.014 109.421 136.005 115.412 136.005 122.75C136.005 130.089 130.014 136.08 122.526 136.08Z" fill="#193651"/>
<path d="M85.9828 74.6755H83.1372V77.5211H85.9828V74.6755Z" fill="#193651"/>
<path d="M93.9208 74.6755H91.0752V77.5211H93.9208V74.6755Z" fill="#193651"/>
<path d="M101.708 74.6755H98.8628V77.5211H101.708V74.6755Z" fill="#193651"/>
<path d="M82.5381 62.844V45.9204H99.3119V62.844L90.925 58.0515L82.5381 62.844Z" fill="#F15F50"/>
<defs>
<filter id="filter0_d" x="8.25879" y="0" width="166.483" height="191" filterUnits="userSpaceOnUse" color-interpolation-filters="sRGB">
<feFlood flood-opacity="0" result="BackgroundImageFix"/>
<feColorMatrix in="SourceAlpha" type="matrix" values="0 0 0 0 0 0 0 0 0 0 0 0 0 0 0 0 0 0 127 0"/>
<feOffset dy="4"/>
<feGaussianBlur stdDeviation="2"/>
<feColorMatrix type="matrix" values="0 0 0 0 0 0 0 0 0 0 0 0 0 0 0 0 0 0 0.25 0"/>
<feBlend mode="normal" in2="BackgroundImageFix" result="effect1_dropShadow"/>
<feBlend mode="normal" in="SourceGraphic" in2="effect1_dropShadow" result="shape"/>
</filter>
</defs>
</svg>
