<svg width="183" height="191" viewBox="0 0 183 191" fill="none" xmlns="http://www.w3.org/2000/svg">
<g filter="url(#filter0_d)">
<path d="M91.5 0L170.741 45.75V137.25L91.5 183L12.2587 137.25V45.75L91.5 0Z" fill="#FFC700"/>
</g>
<g clip-path="url(#clip0)">
<path d="M90.9999 143C115.356 143 135.1 123.256 135.1 98.9C135.1 74.5442 115.356 54.8 90.9999 54.8C66.6441 54.8 46.8999 74.5442 46.8999 98.9C46.8999 123.256 66.6441 143 90.9999 143Z" fill="#FFBF5D"/>
<path d="M133 136.85L126.4 97.55C126.1 95.6 124.3 94.1 122.35 94.1H59.7999C57.8499 94.1 56.0499 95.6 55.7499 97.55L48.9999 136.85C48.5499 139.4 50.4999 141.65 53.0499 141.65H128.8C131.5 141.65 133.45 139.25 133 136.85Z" fill="white"/>
<path d="M54.7002 136.1L60.8502 99.5H121.15L127.3 136.1H54.7002Z" fill="#E1E6E9"/>
<path d="M91.0001 48.35C103.9 48.35 114.4 58.85 114.4 71.75C114.4 84.65 95.5001 97.85 91.0001 111.05C86.5001 97.85 67.6001 84.65 67.6001 71.75C67.6001 58.85 78.1001 48.35 91.0001 48.35Z" fill="white"/>
<path d="M134.35 136.55L127.75 97.25C127.3 94.55 125.05 92.6 122.35 92.6H105.1C110.65 85.85 115.75 78.8 115.75 71.75C115.75 58.1 104.65 47 90.9998 47C77.3498 47 66.2498 58.1 66.2498 71.75C66.2498 78.8 71.3498 85.85 76.8998 92.6H59.7998C57.0998 92.6 54.8498 94.55 54.3998 97.25L47.6498 136.55C47.3498 138.2 47.7998 139.85 48.8498 141.05C49.8998 142.25 51.5498 143 53.0498 143H128.8C130.45 143 131.95 142.25 133 141.05C134.2 139.85 134.65 138.2 134.35 136.55ZM90.9998 49.7C103.15 49.7 113.05 59.6 113.05 71.75C113.05 78.5 107.05 85.85 101.35 92.9C97.4498 97.7 93.5498 102.5 91.1498 107.45C88.7498 102.5 84.6998 97.7 80.9498 92.9C75.0998 85.85 69.2498 78.5 69.2498 71.75C68.9498 59.6 78.8498 49.7 90.9998 49.7ZM131.05 139.25C130.45 139.85 129.7 140.3 128.95 140.3H53.0498C52.2998 140.3 51.3998 140 50.9498 139.25C50.3498 138.65 50.1998 137.75 50.3498 137L56.9498 97.7C57.2498 96.35 58.2998 95.45 59.6498 95.45H78.9998C83.3498 100.85 87.6998 106.25 89.4998 111.65C89.6498 112.25 90.2498 112.55 90.8498 112.55C91.4498 112.55 91.8998 112.1 92.1998 111.65C93.9998 106.4 98.3498 100.85 102.7 95.45H122.05C123.4 95.45 124.6 96.35 124.75 97.7L131.65 137C131.8 137.75 131.5 138.65 131.05 139.25Z" fill="#193651"/>
<path d="M91.0002 83.9C97.7933 83.9 103.3 78.3931 103.3 71.6C103.3 64.8069 97.7933 59.3 91.0002 59.3C84.2071 59.3 78.7002 64.8069 78.7002 71.6C78.7002 78.3931 84.2071 83.9 91.0002 83.9Z" fill="#F15F50"/>
<path d="M100.75 116.45V136.1H103.45V119.15H124.45L124 116.45H100.75Z" fill="#193651"/>
<path d="M69.9999 99.5H67.1499V121.85H57.0999L56.6499 124.55H69.9999V99.5Z" fill="#193651"/>
<path d="M88.9002 128.45H86.2002V131.15H88.9002V128.45Z" fill="#193651"/>
<path d="M81.4002 128.45H78.7002V131.15H81.4002V128.45Z" fill="#193651"/>
<path d="M74.0501 128.45H71.3501V131.15H74.0501V128.45Z" fill="#193651"/>
<path d="M118.3 107.9H115.6V110.6H118.3V107.9Z" fill="#193651"/>
<path d="M110.8 107.9H108.1V110.6H110.8V107.9Z" fill="#193651"/>
<path d="M103.45 107.9H100.75V110.6H103.45V107.9Z" fill="#193651"/>
</g>
<defs>
<filter id="filter0_d" x="8.25879" y="0" width="166.483" height="191" filterUnits="userSpaceOnUse" color-interpolation-filters="sRGB">
<feFlood flood-opacity="0" result="BackgroundImageFix"/>
<feColorMatrix in="SourceAlpha" type="matrix" values="0 0 0 0 0 0 0 0 0 0 0 0 0 0 0 0 0 0 127 0"/>
<feOffset dy="4"/>
<feGaussianBlur stdDeviation="2"/>
<feColorMatrix type="matrix" values="0 0 0 0 0 0 0 0 0 0 0 0 0 0 0 0 0 0 0.25 0"/>
<feBlend mode="normal" in2="BackgroundImageFix" result="effect1_dropShadow"/>
<feBlend mode="normal" in="SourceGraphic" in2="effect1_dropShadow" result="shape"/>
</filter>
<clipPath id="clip0">
<rect width="96" height="96" fill="white" transform="translate(43 47)"/>
</clipPath>
</defs>
</svg>
