<svg width="183" height="191" viewBox="0 0 183 191" fill="none" xmlns="http://www.w3.org/2000/svg">
<g filter="url(#filter0_d)">
<path d="M91.5 0L170.741 45.75V137.25L91.5 183L12.2587 137.25V45.75L91.5 0Z" fill="#FFC700"/>
</g>
<path d="M137.075 44C136.325 44 135.575 44.6 135.575 45.5V52.55H93.4248V45.5C93.4248 44.75 92.8248 44 91.9248 44C91.0248 44 90.4248 44.6 90.4248 45.5V52.55H48.2748V45.5C48.2748 44.75 47.6748 44 46.7748 44C45.8748 44 45.4248 44.6 45.4248 45.5V138.5C45.4248 139.25 46.0248 140 46.9248 140C47.8248 140 48.4248 139.4 48.4248 138.5V131.45H90.4248V138.5C90.4248 139.25 91.0248 140 91.9248 140C92.8248 140 93.4248 139.4 93.4248 138.5V131.45H135.575V138.5C135.575 139.25 136.175 140 137.075 140C137.825 140 138.575 139.4 138.575 138.5V45.5C138.425 44.6 137.825 44 137.075 44ZM135.575 90.5H93.4248V55.4H135.575V90.5ZM90.4248 90.5H48.2748V55.4H90.4248V90.5ZM48.2748 93.5H90.4248V128.75H48.2748V93.5ZM93.4248 93.5H135.575V128.75H93.4248V93.5Z" fill="#193651"/>
<path d="M129.275 59.6H99.2754V85.55H129.275V59.6Z" fill="#BB7407"/>
<path d="M117.725 59.6H110.525V65.75H117.725V59.6Z" fill="#F15F50"/>
<path d="M110.525 81.05H112.475V77.45H113.375L111.575 75.05L109.625 77.45H110.525V81.05Z" fill="white"/>
<path d="M113.674 81.8H109.324V82.55H113.674V81.8Z" fill="white"/>
<path d="M107.075 81.8H102.725V82.55H107.075V81.8Z" fill="white"/>
<path d="M103.924 81.05H105.874V77.45H106.774L104.824 75.05L103.024 77.45H103.924V81.05Z" fill="white"/>
<path d="M129.275 98.45H99.2754V124.4H129.275V98.45Z" fill="#BB7407"/>
<path d="M117.725 98.45H110.525V104.6H117.725V98.45Z" fill="#F15F50"/>
<path d="M110.525 119.9H112.475V116.3H113.375L111.575 113.9L109.625 116.3H110.525V119.9Z" fill="white"/>
<path d="M113.674 120.65H109.324V121.4H113.674V120.65Z" fill="white"/>
<path d="M107.075 120.65H102.725V121.4H107.075V120.65Z" fill="white"/>
<path d="M103.924 119.9H105.874V116.3H106.774L104.824 113.9L103.024 116.3H103.924V119.9Z" fill="white"/>
<path d="M84.7246 59.6H54.7246V85.55H84.7246V59.6Z" fill="#BB7407"/>
<path d="M73.1746 59.6H65.9746V65.75H73.1746V59.6Z" fill="#F15F50"/>
<path d="M65.9752 81.05H67.9252V77.45H68.8252L66.8752 75.05L65.0752 77.45H65.9752V81.05Z" fill="white"/>
<path d="M69.1244 81.8H64.7744V82.55H69.1244V81.8Z" fill="white"/>
<path d="M62.5248 81.8H58.1748V82.55H62.5248V81.8Z" fill="white"/>
<path d="M59.3752 81.05H61.3252V77.45H62.2252L60.2752 75.05L58.3252 77.45H59.3752V81.05Z" fill="white"/>
<path d="M84.7246 98.45H54.7246V124.4H84.7246V98.45Z" fill="#BB7407"/>
<path d="M73.1746 98.45H65.9746V104.6H73.1746V98.45Z" fill="#F15F50"/>
<path d="M65.9752 119.9H67.9252V116.3H68.8252L66.8752 113.9L65.0752 116.3H65.9752V119.9Z" fill="white"/>
<path d="M69.1244 120.65H64.7744V121.4H69.1244V120.65Z" fill="white"/>
<path d="M62.5248 120.65H58.1748V121.4H62.5248V120.65Z" fill="white"/>
<path d="M59.3752 119.9H61.3252V116.3H62.2252L60.2752 113.9L58.3252 116.3H59.3752V119.9Z" fill="white"/>
<path d="M123.425 108.5H120.575V111.35H123.425V108.5Z" fill="#193651"/>
<path d="M115.625 108.5H112.775V111.35H115.625V108.5Z" fill="#193651"/>
<path d="M107.675 108.5H104.825V111.35H107.675V108.5Z" fill="#193651"/>
<path d="M123.425 69.5H120.575V72.35H123.425V69.5Z" fill="#193651"/>
<path d="M115.625 69.5H112.775V72.35H115.625V69.5Z" fill="#193651"/>
<path d="M107.675 69.5H104.825V72.35H107.675V69.5Z" fill="#193651"/>
<defs>
<filter id="filter0_d" x="8.25879" y="0" width="166.483" height="191" filterUnits="userSpaceOnUse" color-interpolation-filters="sRGB">
<feFlood flood-opacity="0" result="BackgroundImageFix"/>
<feColorMatrix in="SourceAlpha" type="matrix" values="0 0 0 0 0 0 0 0 0 0 0 0 0 0 0 0 0 0 127 0"/>
<feOffset dy="4"/>
<feGaussianBlur stdDeviation="2"/>
<feColorMatrix type="matrix" values="0 0 0 0 0 0 0 0 0 0 0 0 0 0 0 0 0 0 0.25 0"/>
<feBlend mode="normal" in2="BackgroundImageFix" result="effect1_dropShadow"/>
<feBlend mode="normal" in="SourceGraphic" in2="effect1_dropShadow" result="shape"/>
</filter>
</defs>
</svg>
