<svg width="183" height="191" viewBox="0 0 183 191" fill="none" xmlns="http://www.w3.org/2000/svg">
<g filter="url(#filter0_d)">
<path d="M91.5 0L170.741 45.75V137.25L91.5 183L12.2587 137.25V45.75L91.5 0Z" fill="#FFC700"/>
</g>
<path d="M44.5 112.4V124.4C44.5 128.6 47.8 131.9 52 131.9H130C134.2 131.9 137.5 128.6 137.5 124.4V112.4H44.5Z" fill="#44C4A1"/>
<path d="M130 48.5H52C47.8 48.5 44.5 51.8 44.5 56V112.4L137.5 112.55V56C137.5 51.8 134.2 48.5 130 48.5Z" fill="#E1E6E9"/>
<path d="M50.5 106.4V56C50.5 55.1 51.1 54.5 52 54.5H130C130.9 54.5 131.5 55.1 131.5 56V106.55L50.5 106.4Z" fill="white"/>
<path d="M102.1 132.05H79.8999V141.5H102.1V132.05Z" fill="white"/>
<path d="M90.9999 125.75C92.9881 125.75 94.5999 124.138 94.5999 122.15C94.5999 120.162 92.9881 118.55 90.9999 118.55C89.0117 118.55 87.3999 120.162 87.3999 122.15C87.3999 124.138 89.0117 125.75 90.9999 125.75Z" fill="white"/>
<path d="M130 47H52C47.05 47 43 51.05 43 56C43 63.8 43 115.4 43 124.4C43 129.35 47.05 133.4 52 133.4H78.4V140H70.45C69.55 140 68.95 140.6 68.95 141.5C68.95 142.4 69.55 143 70.45 143H79.9H102.1H111.55C112.45 143 113.05 142.4 113.05 141.5C113.05 140.6 112.45 140 111.55 140H103.6V133.4H130C134.95 133.4 139 129.35 139 124.4C139 114.05 139 64.1 139 56C139 51.05 134.95 47 130 47ZM81.4 140V133.55H100.6V140H81.4ZM52 50H130C133.3 50 136 52.7 136 56V110.9H46V56C46 52.7 48.7 50 52 50ZM130 130.4H52C48.7 130.4 46 127.7 46 124.4V113.9L136 114.05V124.4C136 127.7 133.3 130.4 130 130.4Z" fill="#193651"/>
<path d="M90.9999 117.05C88.1499 117.05 85.8999 119.3 85.8999 122.15C85.8999 125 88.1499 127.25 90.9999 127.25C93.8499 127.25 96.0999 125 96.0999 122.15C96.0999 119.3 93.8499 117.05 90.9999 117.05ZM90.9999 124.1C89.7999 124.1 88.8999 123.2 88.8999 122C88.8999 120.8 89.7999 119.9 90.9999 119.9C92.1999 119.9 93.0999 120.8 93.0999 122C93.0999 123.2 92.1999 124.1 90.9999 124.1Z" fill="#193651"/>
<path d="M87.5498 92.9C84.9998 92.9 83.0498 94.85 83.0498 97.4C83.0498 99.95 84.9998 101.9 87.5498 101.9C90.0998 101.9 92.0498 99.95 92.0498 97.4C92.0498 94.85 89.9498 92.9 87.5498 92.9ZM87.5498 98.9C86.6498 98.9 86.0498 98.3 86.0498 97.4C86.0498 96.5 86.6498 95.9 87.5498 95.9C88.4498 95.9 89.0498 96.5 89.0498 97.4C89.0498 98.3 88.2998 98.9 87.5498 98.9Z" fill="#193651"/>
<path d="M102.55 92.9C99.9998 92.9 98.0498 94.85 98.0498 97.4C98.0498 99.95 99.9998 101.9 102.55 101.9C105.1 101.9 107.05 99.95 107.05 97.4C107.05 94.85 104.95 92.9 102.55 92.9ZM102.55 98.9C101.65 98.9 101.05 98.3 101.05 97.4C101.05 96.5 101.65 95.9 102.55 95.9C103.45 95.9 104.05 96.5 104.05 97.4C104.05 98.3 103.3 98.9 102.55 98.9Z" fill="#193651"/>
<path d="M67 61.85H69.55C72.55 61.85 74.95 63.95 75.55 66.8L80.05 88.7C80.2 89.45 80.8 89.9 81.55 89.9H107.65C108.25 89.9 108.85 89.45 109 88.85L116.5 68.45C116.65 68 116.65 67.55 116.35 67.1C115.9 66.65 115.45 66.5 115 66.5H78.55V66.35C77.65 62.15 73.9 59 69.55 59H67C66.1 59 65.5 59.6 65.5 60.5C65.5 61.4 66.1 61.85 67 61.85ZM108.85 80.6H81.4L80.65 76.85H110.2L108.85 80.6ZM106.6 86.9H82.75L82 83.6H107.8L106.6 86.9ZM112.9 69.5L111.25 74H80.05L79.15 69.5H112.9Z" fill="#193651"/>
<path d="M62.5 92H59.5V95H62.5V92Z" fill="#193651"/>
<path d="M62.5 83.9H59.5V86.9H62.5V83.9Z" fill="#193651"/>
<path d="M62.5 75.8H59.5V78.8H62.5V75.8Z" fill="#193651"/>
<path d="M122.5 92H119.5V95H122.5V92Z" fill="#193651"/>
<path d="M122.5 83.9H119.5V86.9H122.5V83.9Z" fill="#193651"/>
<path d="M122.5 75.8H119.5V78.8H122.5V75.8Z" fill="#193651"/>
<defs>
<filter id="filter0_d" x="8.25879" y="0" width="166.483" height="191" filterUnits="userSpaceOnUse" color-interpolation-filters="sRGB">
<feFlood flood-opacity="0" result="BackgroundImageFix"/>
<feColorMatrix in="SourceAlpha" type="matrix" values="0 0 0 0 0 0 0 0 0 0 0 0 0 0 0 0 0 0 127 0"/>
<feOffset dy="4"/>
<feGaussianBlur stdDeviation="2"/>
<feColorMatrix type="matrix" values="0 0 0 0 0 0 0 0 0 0 0 0 0 0 0 0 0 0 0.25 0"/>
<feBlend mode="normal" in2="BackgroundImageFix" result="effect1_dropShadow"/>
<feBlend mode="normal" in="SourceGraphic" in2="effect1_dropShadow" result="shape"/>
</filter>
</defs>
</svg>
