<svg width="263" height="81" viewBox="0 0 263 81" fill="none" xmlns="http://www.w3.org/2000/svg">
<mask id="path-1-inside-1" fill="white">
<path d="M28.208 35.3721C28.208 43.1615 21.8934 49.4761 14.104 49.4761C6.31458 49.4761 0 43.1615 0 35.3721C0 27.5826 6.31458 21.2681 14.104 21.2681C21.8934 21.2681 28.208 27.5826 28.208 35.3721ZM5.76953 35.3721C5.76953 39.9751 9.501 43.7066 14.104 43.7066C18.707 43.7066 22.4385 39.9751 22.4385 35.3721C22.4385 30.7691 18.707 27.0376 14.104 27.0376C9.501 27.0376 5.76953 30.7691 5.76953 35.3721Z"/>
</mask>
<path d="M28.208 35.3721C28.208 43.1615 21.8934 49.4761 14.104 49.4761C6.31458 49.4761 0 43.1615 0 35.3721C0 27.5826 6.31458 21.2681 14.104 21.2681C21.8934 21.2681 28.208 27.5826 28.208 35.3721ZM5.76953 35.3721C5.76953 39.9751 9.501 43.7066 14.104 43.7066C18.707 43.7066 22.4385 39.9751 22.4385 35.3721C22.4385 30.7691 18.707 27.0376 14.104 27.0376C9.501 27.0376 5.76953 30.7691 5.76953 35.3721Z" fill="black" stroke="black" stroke-width="40" mask="url(#path-1-inside-1)"/>
<mask id="path-2-inside-2" fill="white">
<path d="M58.8765 35.3721C58.8765 43.1615 52.5619 49.4761 44.7725 49.4761C36.983 49.4761 30.6685 43.1615 30.6685 35.3721C30.6685 27.5826 36.983 21.2681 44.7725 21.2681C52.5619 21.2681 58.8765 27.5826 58.8765 35.3721ZM36.438 35.3721C36.438 39.9751 40.1695 43.7066 44.7725 43.7066C49.3755 43.7066 53.1069 39.9751 53.1069 35.3721C53.1069 30.7691 49.3755 27.0376 44.7725 27.0376C40.1695 27.0376 36.438 30.7691 36.438 35.3721Z"/>
</mask>
<path d="M58.8765 35.3721C58.8765 43.1615 52.5619 49.4761 44.7725 49.4761C36.983 49.4761 30.6685 43.1615 30.6685 35.3721C30.6685 27.5826 36.983 21.2681 44.7725 21.2681C52.5619 21.2681 58.8765 27.5826 58.8765 35.3721ZM36.438 35.3721C36.438 39.9751 40.1695 43.7066 44.7725 43.7066C49.3755 43.7066 53.1069 39.9751 53.1069 35.3721C53.1069 30.7691 49.3755 27.0376 44.7725 27.0376C40.1695 27.0376 36.438 30.7691 36.438 35.3721Z" fill="black" stroke="black" stroke-width="40" mask="url(#path-2-inside-2)"/>
<mask id="path-3-inside-3" fill="white">
<path d="M120.212 35.3721C120.212 43.1615 113.897 49.4761 106.108 49.4761C98.3185 49.4761 92.0039 43.1615 92.0039 35.3721C92.0039 27.5826 98.3185 21.2681 106.108 21.2681C113.897 21.2681 120.212 27.5826 120.212 35.3721ZM97.7734 35.3721C97.7734 39.9751 101.505 43.7066 106.108 43.7066C110.711 43.7066 114.442 39.9751 114.442 35.3721C114.442 30.7691 110.711 27.0376 106.108 27.0376C101.505 27.0376 97.7734 30.7691 97.7734 35.3721Z"/>
</mask>
<path d="M120.212 35.3721C120.212 43.1615 113.897 49.4761 106.108 49.4761C98.3185 49.4761 92.0039 43.1615 92.0039 35.3721C92.0039 27.5826 98.3185 21.2681 106.108 21.2681C113.897 21.2681 120.212 27.5826 120.212 35.3721ZM97.7734 35.3721C97.7734 39.9751 101.505 43.7066 106.108 43.7066C110.711 43.7066 114.442 39.9751 114.442 35.3721C114.442 30.7691 110.711 27.0376 106.108 27.0376C101.505 27.0376 97.7734 30.7691 97.7734 35.3721Z" fill="black" stroke="black" stroke-width="40" mask="url(#path-3-inside-3)"/>
<mask id="path-4-inside-4" fill="white">
<path d="M89.544 35.3721C89.544 43.1615 83.2294 49.4761 75.4399 49.4761C67.6505 49.4761 61.3359 43.1615 61.3359 35.3721C61.3359 27.5826 67.6505 21.2681 75.4399 21.2681C83.2294 21.2681 89.544 27.5826 89.544 35.3721ZM67.1055 35.3721C67.1055 39.9751 70.8369 43.7066 75.4399 43.7066C80.0429 43.7066 83.7744 39.9751 83.7744 35.3721C83.7744 30.7691 80.0429 27.0376 75.4399 27.0376C70.8369 27.0376 67.1055 30.7691 67.1055 35.3721Z"/>
</mask>
<path d="M89.544 35.3721C89.544 43.1615 83.2294 49.4761 75.4399 49.4761C67.6505 49.4761 61.3359 43.1615 61.3359 35.3721C61.3359 27.5826 67.6505 21.2681 75.4399 21.2681C83.2294 21.2681 89.544 27.5826 89.544 35.3721ZM67.1055 35.3721C67.1055 39.9751 70.8369 43.7066 75.4399 43.7066C80.0429 43.7066 83.7744 39.9751 83.7744 35.3721C83.7744 30.7691 80.0429 27.0376 75.4399 27.0376C70.8369 27.0376 67.1055 30.7691 67.1055 35.3721Z" fill="black" stroke="black" stroke-width="40" mask="url(#path-4-inside-4)"/>
<path d="M61.3359 7H63.0759C65.2851 7 67.0759 8.79086 67.0759 11V37.34H61.3359V7Z" fill="black"/>
<path d="M0 16.84H1.74C3.94914 16.84 5.74 18.6309 5.74 20.84V60.4641H4C1.79086 60.4641 0 58.6732 0 56.4641V16.84Z" fill="black"/>
<circle cx="14.1046" cy="35.372" r="4.92" fill="black"/>
<circle cx="44.7721" cy="35.372" r="4.92" fill="black"/>
<circle cx="75.4405" cy="35.372" r="4.92" fill="black"/>
<circle cx="106.108" cy="35.372" r="4.92" fill="black"/>
<path d="M4.66602 40.4561L28.7753 56.5714L27.8083 58.018C26.5807 59.8546 24.0966 60.3483 22.26 59.1207L1.47621 45.2281L4.66602 40.4561Z" fill="black"/>
<path d="M140.859 45.7188C141.297 45.7188 141.672 45.8906 141.984 46.2344C142.328 46.5469 142.5 46.9375 142.5 47.4062C142.5 47.8438 142.328 48.2188 141.984 48.5312C141.672 48.8438 141.297 49 140.859 49H125.438C124.969 49 124.562 48.8281 124.219 48.4844C123.875 48.1406 123.703 47.7344 123.703 47.2656V23.9688C123.703 23.5 123.875 23.0938 124.219 22.75C124.562 22.375 124.969 22.1875 125.438 22.1875H140.859C141.297 22.1875 141.672 22.3594 141.984 22.7031C142.328 23.0156 142.5 23.3906 142.5 23.8281C142.5 24.2656 142.328 24.6562 141.984 25C141.672 25.3125 141.297 25.4688 140.859 25.4688H127.219V33.9531H139.453C139.891 33.9531 140.266 34.1094 140.578 34.4219C140.922 34.7344 141.094 35.125 141.094 35.5938C141.094 36.0312 140.938 36.4219 140.625 36.7656C140.312 37.0781 139.922 37.2344 139.453 37.2344H127.219V45.7188H140.859ZM162.938 46.2812C163.219 46.5938 163.344 46.9688 163.312 47.4062C163.312 47.8438 163.156 48.25 162.844 48.625C162.562 49 162.125 49.1875 161.531 49.1875C160.969 49.1875 160.531 48.9688 160.219 48.5312L154.734 41.9688L149.625 48.4375C149.25 48.9375 148.781 49.1875 148.219 49.1875C147.656 49.1875 147.219 49.0312 146.906 48.7188C146.594 48.4062 146.438 48.0156 146.438 47.5469C146.438 47.0781 146.562 46.6719 146.812 46.3281L152.812 39.3438L146.812 32.0312C146.531 31.6875 146.391 31.2969 146.391 30.8594C146.422 30.3906 146.594 30 146.906 29.6875C147.25 29.375 147.688 29.2188 148.219 29.2188C148.781 29.2188 149.219 29.4375 149.531 29.875L154.922 36.5312L160.266 29.875C160.578 29.4375 161 29.2188 161.531 29.2188C162.094 29.2188 162.531 29.375 162.844 29.6875C163.188 30 163.359 30.375 163.359 30.8125C163.359 31.25 163.234 31.625 162.984 31.9375L156.938 39.1094L162.938 46.2812ZM171.797 31.9375C173.703 30 175.891 29.0312 178.359 29.0312C180.859 29.0312 182.984 29.9062 184.734 31.6562C186.672 33.5938 187.656 36.1094 187.688 39.2031C187.688 42.3281 186.703 44.8594 184.734 46.7969C182.922 48.5469 180.781 49.4062 178.312 49.375C175.875 49.375 173.703 48.4062 171.797 46.4688V56.2656C171.797 56.7656 171.625 57.1875 171.281 57.5312C170.969 57.875 170.562 58.0469 170.062 58.0469C169.562 58.0469 169.141 57.875 168.797 57.5312C168.484 57.1875 168.328 56.7656 168.328 56.2656V30.9531C168.328 30.4844 168.484 30.0781 168.797 29.7344C169.141 29.3906 169.562 29.2188 170.062 29.2188C170.562 29.2188 170.969 29.3906 171.281 29.7344C171.625 30.0469 171.797 30.4531 171.797 30.9531V31.9375ZM171.797 43.2344C173.547 45.1719 175.578 46.125 177.891 46.0938C180.828 46.0938 182.781 44.7969 183.75 42.2031C184.062 41.3281 184.203 40.3281 184.172 39.2031C184.172 37.0156 183.594 35.2969 182.438 34.0469C181.312 32.8906 179.797 32.3125 177.891 32.3125C175.578 32.3125 173.547 33.2656 171.797 35.1719V43.2344ZM195.984 32.6406C197.797 30.2344 199.812 29.0312 202.031 29.0312H202.219C202.688 29.0312 203.078 29.2031 203.391 29.5469C203.734 29.8594 203.906 30.2656 203.906 30.7656C203.906 31.2656 203.734 31.6719 203.391 31.9844C203.047 32.2656 202.625 32.4062 202.125 32.4062H201.938C200.656 32.4062 199.516 32.7188 198.516 33.3438C197.516 33.9688 196.672 34.7812 195.984 35.7812V47.4531C195.984 47.9219 195.812 48.3281 195.469 48.6719C195.125 49.0156 194.719 49.1875 194.25 49.1875C193.781 49.1875 193.375 49.0156 193.031 48.6719C192.688 48.3281 192.516 47.9219 192.516 47.4531V31C192.516 30.5312 192.672 30.125 192.984 29.7812C193.328 29.4062 193.75 29.2188 194.25 29.2188C194.719 29.2188 195.125 29.3906 195.469 29.7344C195.812 30.0781 195.984 30.5 195.984 31V32.6406ZM209.672 40.4688C209.891 42.1875 210.547 43.5625 211.641 44.5938C212.766 45.5938 214.297 46.0938 216.234 46.0938C218.203 46.0938 219.875 45.7812 221.25 45.1562C221.688 44.9375 222.078 44.8281 222.422 44.8281C222.766 44.7969 223.078 44.9219 223.359 45.2031C223.672 45.4844 223.828 45.7969 223.828 46.1406C223.828 46.8281 223.547 47.3125 222.984 47.5938C222.453 47.875 221.969 48.125 221.531 48.3438C221.094 48.5625 220.625 48.75 220.125 48.9062C218.969 49.2188 217.625 49.375 216.094 49.375C212.938 49.375 210.484 48.5 208.734 46.75C207.016 44.9688 206.156 42.4531 206.156 39.2031C206.156 36.3906 206.891 34.0469 208.359 32.1719C210.016 30.0781 212.344 29.0312 215.344 29.0312C218.219 29.0312 220.484 30 222.141 31.9375C223.703 33.75 224.484 36.0156 224.484 38.7344C224.484 39.2031 224.312 39.6094 223.969 39.9531C223.656 40.2969 223.25 40.4688 222.75 40.4688H209.672ZM215.344 31.9844C213.062 31.9844 211.406 33 210.375 35.0312C210 35.75 209.766 36.6094 209.672 37.6094H221.016C220.922 35.7969 220.25 34.3594 219 33.2969C218 32.4219 216.781 31.9844 215.344 31.9844ZM235.406 46.1406C238.25 46.1406 239.656 45.25 239.625 43.4688C239.625 42.9062 239.344 42.4688 238.781 42.1562C238.219 41.8438 237.516 41.5781 236.672 41.3594C235.828 41.1406 234.906 40.9062 233.906 40.6562C232.906 40.4062 231.969 40.0625 231.094 39.625C230.219 39.1875 229.5 38.625 228.938 37.9375C228.375 37.2188 228.094 36.3438 228.094 35.3125C228.094 34.2812 228.25 33.4062 228.562 32.6875C228.875 31.9375 229.344 31.2969 229.969 30.7656C231.312 29.6094 233.188 29.0312 235.594 29.0312C237.531 29.0312 239.391 29.3438 241.172 29.9688C241.516 30.0938 241.781 30.3125 241.969 30.625C242.188 30.9062 242.297 31.2188 242.297 31.5625C242.297 31.875 242.141 32.1875 241.828 32.5C241.547 32.8125 241.266 32.9688 240.984 32.9688C240.703 32.9688 240.359 32.9062 239.953 32.7812C238.734 32.4062 237.391 32.2188 235.922 32.2188C234.453 32.2188 233.344 32.4688 232.594 32.9688C231.844 33.4688 231.469 34.0938 231.469 34.8438C231.469 35.5625 231.75 36.0938 232.312 36.4375C232.875 36.75 233.578 37.0312 234.422 37.2812C235.297 37.5312 236.234 37.7656 237.234 37.9844C238.266 38.2031 239.203 38.5312 240.047 38.9688C242.047 40 243.047 41.5781 243.047 43.7031C243.047 45.3594 242.422 46.6875 241.172 47.6875C239.859 48.8125 238 49.375 235.594 49.375C233.031 49.375 230.719 48.7969 228.656 47.6406C228.219 47.3281 227.984 46.9531 227.953 46.5156C227.953 46.0469 228.094 45.6562 228.375 45.3438C228.688 45 229 44.8281 229.312 44.8281C229.625 44.8281 230.031 44.9375 230.531 45.1562C232 45.8125 233.625 46.1406 235.406 46.1406ZM253.781 46.1406C256.625 46.1406 258.031 45.25 258 43.4688C258 42.9062 257.719 42.4688 257.156 42.1562C256.594 41.8438 255.891 41.5781 255.047 41.3594C254.203 41.1406 253.281 40.9062 252.281 40.6562C251.281 40.4062 250.344 40.0625 249.469 39.625C248.594 39.1875 247.875 38.625 247.312 37.9375C246.75 37.2188 246.469 36.3438 246.469 35.3125C246.469 34.2812 246.625 33.4062 246.938 32.6875C247.25 31.9375 247.719 31.2969 248.344 30.7656C249.688 29.6094 251.562 29.0312 253.969 29.0312C255.906 29.0312 257.766 29.3438 259.547 29.9688C259.891 30.0938 260.156 30.3125 260.344 30.625C260.562 30.9062 260.672 31.2188 260.672 31.5625C260.672 31.875 260.516 32.1875 260.203 32.5C259.922 32.8125 259.641 32.9688 259.359 32.9688C259.078 32.9688 258.734 32.9062 258.328 32.7812C257.109 32.4062 255.766 32.2188 254.297 32.2188C252.828 32.2188 251.719 32.4688 250.969 32.9688C250.219 33.4688 249.844 34.0938 249.844 34.8438C249.844 35.5625 250.125 36.0938 250.688 36.4375C251.25 36.75 251.953 37.0312 252.797 37.2812C253.672 37.5312 254.609 37.7656 255.609 37.9844C256.641 38.2031 257.578 38.5312 258.422 38.9688C260.422 40 261.422 41.5781 261.422 43.7031C261.422 45.3594 260.797 46.6875 259.547 47.6875C258.234 48.8125 256.375 49.375 253.969 49.375C251.406 49.375 249.094 48.7969 247.031 47.6406C246.594 47.3281 246.359 46.9531 246.328 46.5156C246.328 46.0469 246.469 45.6562 246.75 45.3438C247.062 45 247.375 44.8281 247.688 44.8281C248 44.8281 248.406 44.9375 248.906 45.1562C250.375 45.8125 252 46.1406 253.781 46.1406Z" fill="black"/>
</svg>
