<svg width="40" height="40" viewBox="0 0 40 40" fill="none" xmlns="http://www.w3.org/2000/svg">
<g clip-path="url(#clip0)">
<path d="M20 40.0001C31.0328 40.0001 39.9766 31.0562 39.9766 20.0235C39.9766 8.9907 31.0328 0.046875 20 0.046875C8.96726 0.046875 0.0234375 8.9907 0.0234375 20.0235C0.0234375 31.0562 8.96726 40.0001 20 40.0001Z" fill="#FFBF5D"/>
<path d="M39.3526 20.3354H0.647949V39.3756H39.3526V20.3354Z" fill="#27A2DE"/>
<path d="M35.0452 22.7703C34.6706 22.7703 34.4209 23.02 34.4209 23.3945V36.3169C34.4209 36.6914 34.6706 36.9412 35.0452 36.9412C35.4197 36.9412 35.6694 36.6914 35.6694 36.3169V23.3945C35.6694 23.0824 35.4197 22.7703 35.0452 22.7703Z" fill="white"/>
<path d="M30.7376 22.7703C30.363 22.7703 30.1133 23.02 30.1133 23.3945V36.3169C30.1133 36.6914 30.363 36.9412 30.7376 36.9412C31.1121 36.9412 31.3618 36.6914 31.3618 36.3169V23.3945C31.3618 23.0824 31.1121 22.7703 30.7376 22.7703Z" fill="white"/>
<path d="M26.4299 22.7703C26.0554 22.7703 25.8057 23.02 25.8057 23.3945V36.3169C25.8057 36.6914 26.0554 36.9412 26.4299 36.9412C26.8045 36.9412 27.0542 36.6914 27.0542 36.3169V23.3945C27.0542 23.0824 26.8045 22.7703 26.4299 22.7703Z" fill="white"/>
<path d="M22.1228 22.7703C21.7482 22.7703 21.4985 23.02 21.4985 23.3945V36.3169C21.4985 36.6914 21.7482 36.9412 22.1228 36.9412C22.4974 36.9412 22.7471 36.6914 22.7471 36.3169V23.3945C22.7471 23.0824 22.4974 22.7703 22.1228 22.7703Z" fill="white"/>
<path d="M17.8777 22.7703C17.5031 22.7703 17.2534 23.02 17.2534 23.3945V36.3169C17.2534 36.6914 17.5031 36.9412 17.8777 36.9412C18.2522 36.9412 18.502 36.6914 18.502 36.3169V23.3945C18.502 23.0824 18.1898 22.7703 17.8777 22.7703Z" fill="white"/>
<path d="M13.5706 22.7703C13.196 22.7703 12.9463 23.02 12.9463 23.3945V36.3169C12.9463 36.6914 13.196 36.9412 13.5706 36.9412C13.9451 36.9412 14.1948 36.6914 14.1948 36.3169V23.3945C14.1948 23.0824 13.8827 22.7703 13.5706 22.7703Z" fill="white"/>
<path d="M9.26245 22.7703C8.88789 22.7703 8.63818 23.02 8.63818 23.3945V36.3169C8.63818 36.6914 8.88789 36.9412 9.26245 36.9412C9.63701 36.9412 9.88672 36.6914 9.88672 36.3169V23.3945C9.88672 23.0824 9.57459 22.7703 9.26245 22.7703Z" fill="white"/>
<path d="M4.95532 22.7703C4.58076 22.7703 4.33105 23.02 4.33105 23.3945V36.3169C4.33105 36.6914 4.58076 36.9412 4.95532 36.9412C5.32988 36.9412 5.57959 36.6914 5.57959 36.3169V23.3945C5.57959 23.0824 5.32988 22.7703 4.95532 22.7703Z" fill="white"/>
<path d="M20.0001 0.671143L16.7539 2.29424L17.94 8.53693H22.0602L23.2463 2.29424L20.0001 0.671143Z" fill="#E1E6E9"/>
<path d="M32.9848 17.4639C31.3617 17.4639 30.0508 18.7748 30.0508 20.3979H35.8565C35.8565 18.7748 34.6079 17.4639 32.9848 17.4639Z" fill="white"/>
<path d="M7.01512 17.4639C5.39202 17.4639 4.08105 18.7748 4.08105 20.3979H9.88675C9.94918 18.7748 8.63822 17.4639 7.01512 17.4639Z" fill="white"/>
<path d="M39.3528 19.7113H36.4188C36.1066 18.0882 34.6708 16.7772 32.9229 16.7772C31.9865 16.7772 31.1749 17.1518 30.5507 17.7136L21.686 14.4674C22.1855 14.0304 22.4976 13.3437 22.4976 12.5946C22.4976 11.4085 21.686 10.4097 20.5624 10.16V9.09871H21.9982C22.3103 9.09871 22.56 8.91143 22.6224 8.5993L23.7461 2.35661C23.8086 2.10691 23.6837 1.79477 23.434 1.66992L20.1878 0.0468201C20.0005 -0.0156067 19.8132 -0.0156067 19.626 0.0468201L16.3798 1.66992C16.1301 1.79477 16.0052 2.04448 16.0676 2.35661L17.1913 8.5993C17.2537 8.91143 17.5034 9.09871 17.8156 9.09871H19.3762V10.7218C19.3762 11.0964 19.626 11.3461 20.0005 11.3461C20.6872 11.3461 21.3115 11.9079 21.3115 12.657C21.3115 13.4062 20.7496 13.968 20.0005 13.968C19.2514 13.968 18.6896 13.4062 18.6896 12.657C18.6896 12.2825 18.4398 12.0328 18.0653 12.0328C17.6907 12.0328 17.441 12.2825 17.441 12.657C17.441 13.4062 17.7531 14.0929 18.315 14.5298L9.45038 17.7136C8.82611 17.1518 7.95214 16.7772 7.07816 16.7772C5.33021 16.7772 3.89439 18.0258 3.58226 19.7113H0.648194C0.273633 19.7113 0.0239258 19.961 0.0239258 20.3355V39.3757C0.0239258 39.7503 0.273633 40 0.648194 40H39.3528C39.7274 40 39.9771 39.7503 39.9771 39.3757V20.3355C39.9771 20.0234 39.7274 19.7113 39.3528 19.7113ZM17.5034 2.66875L20.0005 1.42021L22.4976 2.66875L21.5612 7.9126H18.4398L17.5034 2.66875ZM35.1702 19.7113H30.8004C31.0501 18.7749 31.9865 18.0258 32.9853 18.0258C33.9841 18.0258 34.9205 18.7749 35.1702 19.7113ZM10.5116 19.7113C10.4492 19.3991 10.3244 19.087 10.1995 18.7749L20.0629 15.2165L29.8015 18.7749C29.6767 19.087 29.5518 19.3991 29.4894 19.7113H10.5116ZM7.01573 18.0882C8.07699 18.0882 8.95096 18.7749 9.20067 19.7737H4.83079C5.0805 18.7749 6.0169 18.0882 7.01573 18.0882ZM38.7286 38.7515H1.27246V20.9598C5.01807 20.9598 35.0454 20.9598 38.7286 20.9598V38.7515Z" fill="#193651"/>
</g>
<defs>
<clipPath id="clip0">
<rect width="40" height="40" fill="white"/>
</clipPath>
</defs>
</svg>
