<svg width="40" height="40" viewBox="0 0 40 40" fill="none" xmlns="http://www.w3.org/2000/svg">
<path d="M20 40C31.0457 40 40 31.0457 40 20C40 8.9543 31.0457 0 20 0C8.9543 0 0 8.9543 0 20C0 31.0457 8.9543 40 20 40Z" fill="#FFBF5D"/>
<path d="M33.625 16.75C33.3125 15.3125 32.75 13.9375 31.9375 12.6875L34.0625 9.6875L30.3125 5.9375L27.3125 8.0625C26.0625 7.25 24.6875 6.6875 23.25 6.375L22.625 2.75H17.3125L16.6875 6.375C15.25 6.6875 13.875 7.25 12.625 8.0625L9.625 5.9375L5.875 9.6875L8 12.6875C7.1875 13.9375 6.625 15.3125 6.3125 16.75L2.6875 17.375V22.6875L6.3125 23.3125C6.625 24.75 7.1875 26.125 8 27.375L5.875 30.375L9.625 34.125L12.625 32C13.875 32.8125 15.25 33.375 16.6875 33.6875L17.3125 37.3125H22.625L23.25 33.6875C24.6875 33.375 26.0625 32.8125 27.3125 32L30.3125 34.125L34.0625 30.375L31.9375 27.375C32.75 26.125 33.3125 24.75 33.625 23.3125L37.25 22.6875V17.375L33.625 16.75Z" fill="#E1E6E9"/>
<path d="M22.6875 37.875H17.375C17.0625 37.875 16.8125 37.625 16.75 37.375L16.25 34.1875C15 33.875 13.875 33.375 12.75 32.75L10.125 34.625C9.875 34.8125 9.5625 34.75 9.3125 34.5625L5.5625 30.8125C5.375 30.625 5.3125 30.25 5.5 30L7.375 27.375C6.75 26.25 6.25 25.125 5.9375 23.875L2.75 23.375C2.4375 23.3125 2.25 23.0625 2.25 22.75V17.4375C2.25 17.125 2.5 16.875 2.75 16.8125L5.9375 16.3125C6.25 15.0625 6.75 13.9375 7.375 12.8125L5.5 10.1875C5.3125 9.9375 5.375 9.625 5.5625 9.375L9.3125 5.625C9.5 5.4375 9.875 5.375 10.125 5.5625L12.75 7.4375C13.875 6.8125 15 6.3125 16.25 6L16.75 2.8125C16.8125 2.5 17.0625 2.3125 17.375 2.3125H22.6875C23 2.3125 23.25 2.5625 23.3125 2.8125L23.8125 6C25.0625 6.3125 26.1875 6.8125 27.3125 7.4375L29.9375 5.5625C30.1875 5.375 30.5 5.4375 30.75 5.625L34.5 9.375C34.6875 9.5625 34.75 9.9375 34.5625 10.1875L32.6875 12.8125C33.3125 13.9375 33.8125 15.0625 34.125 16.3125L37.3125 16.8125C37.625 16.875 37.8125 17.125 37.8125 17.4375V22.75C37.8125 23.0625 37.5625 23.3125 37.3125 23.375L34.125 23.875C33.8125 25.125 33.3125 26.25 32.6875 27.375L34.5625 30C34.75 30.25 34.6875 30.5625 34.5 30.8125L30.75 34.5625C30.5625 34.75 30.1875 34.8125 29.9375 34.625L27.3125 32.75C26.1875 33.375 25.0625 33.875 23.8125 34.1875L23.3125 37.375C23.25 37.625 23 37.875 22.6875 37.875ZM17.875 36.625H22.125L22.625 33.5625C22.6875 33.3125 22.875 33.125 23.125 33.0625C24.5 32.75 25.8125 32.1875 27 31.4375C27.1875 31.3125 27.5 31.3125 27.6875 31.4375L30.25 33.25L33.25 30.25L31.4375 27.6875C31.3125 27.5 31.3125 27.1875 31.4375 27C32.1875 25.8125 32.75 24.5 33.0625 23.125C33.125 22.875 33.3125 22.6875 33.5625 22.625L36.625 22.125V17.8125L33.5625 17.3125C33.3125 17.25 33.125 17.0625 33.0625 16.8125C32.75 15.4375 32.1875 14.125 31.4375 12.9375C31.3125 12.75 31.3125 12.4375 31.4375 12.25L33.25 9.6875L30.25 6.6875L27.6875 8.5C27.5 8.625 27.1875 8.625 27 8.5C25.8125 7.75 24.5 7.1875 23.125 6.875C22.875 6.8125 22.6875 6.625 22.625 6.375L22.125 3.3125H17.875L17.375 6.375C17.3125 6.625 17.125 6.8125 16.875 6.875C15.5 7.1875 14.1875 7.75 13 8.5C12.8125 8.625 12.5 8.625 12.3125 8.5L9.75 6.6875L6.75 9.6875L8.5625 12.25C8.6875 12.4375 8.6875 12.75 8.5625 12.9375C7.8125 14.125 7.25 15.4375 6.9375 16.8125C6.875 17.0625 6.6875 17.25 6.4375 17.3125L3.375 17.8125V22.125L6.4375 22.625C6.6875 22.6875 6.875 22.875 6.9375 23.125C7.25 24.5 7.8125 25.8125 8.5625 27C8.6875 27.1875 8.6875 27.5 8.5625 27.6875L6.75 30.25L9.75 33.25L12.3125 31.4375C12.5 31.3125 12.8125 31.3125 13 31.4375C14.1875 32.1875 15.5 32.75 16.875 33.0625C17.125 33.125 17.3125 33.3125 17.375 33.5625L17.875 36.625Z" fill="#193651"/>
<path d="M20 10.0625C14.5 10.0625 10.0625 14.5 10.0625 20C10.0625 25.5 14.5 29.9375 20 29.9375C25.5 29.9375 29.9375 25.5 29.9375 20C29.9375 14.5 25.5 10.0625 20 10.0625Z" fill="white"/>
<path d="M20 30.5625C14.1875 30.5625 9.4375 25.8125 9.4375 20C9.4375 14.1875 14.1875 9.4375 20 9.4375C25.8125 9.4375 30.5625 14.1875 30.5625 20C30.5625 25.8125 25.8125 30.5625 20 30.5625ZM20 10.6875C14.875 10.6875 10.6875 14.875 10.6875 20C10.6875 25.125 14.875 29.3125 20 29.3125C25.125 29.3125 29.3125 25.125 29.3125 20C29.3125 14.875 25.125 10.6875 20 10.6875Z" fill="#193651"/>
<path d="M15.3125 18.0625H14.3125V17L11.875 18.5625L14.25 20.125V19.0625H15.25C16 19.0625 16.625 19.6875 16.625 20.4375V26.6875H17.625V20.4375C17.6875 19.125 16.625 18.0625 15.3125 18.0625Z" fill="#27A2DE"/>
<path d="M24.7502 18.0625H25.7502V17L28.1252 18.5625L25.7502 20.125V19.0625H24.7502C24.0002 19.0625 23.3752 19.6875 23.3752 20.4375V26.6875H22.3752V20.4375C22.3127 19.125 23.3752 18.0625 24.7502 18.0625Z" fill="#27A2DE"/>
<path d="M19.5 26.6875H20.5V16.125H21.5625L20 13.6875L18.4375 16.125H19.5V26.6875Z" fill="#F15F50"/>
<path d="M34.4375 19.375H33.3125V20.625H34.4375V19.375Z" fill="#193651"/>
<path d="M6.6875 19.375H5.5625V20.625H6.6875V19.375Z" fill="#193651"/>
<path d="M29.7747 30.6381L30.6587 29.7544L29.8633 28.9588L28.9793 29.8425L29.7747 30.6381Z" fill="#193651"/>
<path d="M10.138 11.0417L11.022 10.158L10.2266 9.36236L9.3426 10.2461L10.138 11.0417Z" fill="#193651"/>
<path d="M20.625 33.3125H19.375V34.4375H20.625V33.3125Z" fill="#193651"/>
<path d="M20.625 5.5625H19.375V6.6875H20.625V5.5625Z" fill="#193651"/>
<path d="M10.2446 30.661L11.04 29.8655L10.1562 28.9816L9.36068 29.7771L10.2446 30.661Z" fill="#193651"/>
<path d="M29.8422 11.0245L30.6377 10.229L29.7538 9.34513L28.9583 10.1406L29.8422 11.0245Z" fill="#193651"/>
</svg>
