<svg width="50" height="54" viewBox="0 0 50 54" fill="none" xmlns="http://www.w3.org/2000/svg">
<path d="M25 40.1625C35.269 40.1625 43.5938 31.1718 43.5938 20.0812C43.5938 8.99068 35.269 0 25 0C14.731 0 6.40625 8.99068 6.40625 20.0812C6.40625 31.1718 14.731 40.1625 25 40.1625Z" fill="#27A2DE"/>
<path d="M35.7031 16.3688C38.6719 16.3688 41.0938 17.55 41.0938 19.0688C41.0938 12.3188 33.9063 5.31567 25 5.31567C16.0938 5.31567 8.90625 12.3188 8.90625 19.0688C8.90625 17.55 11.3281 16.3688 14.2969 16.3688C17.2656 16.3688 19.6875 17.55 19.6875 19.0688C19.6875 17.55 22.1094 16.3688 25.0781 16.3688C28.0469 16.3688 30.4688 17.55 30.4688 19.0688C30.3906 17.6344 32.7344 16.3688 35.7031 16.3688Z" fill="white"/>
<path d="M19.6094 14.597C18.2031 13.7533 16.4063 13.3314 14.2188 13.3314C14.1406 13.3314 14.1406 13.3314 14.0625 13.3314C16.4062 10.547 20.3906 8.35327 24.9219 8.35327C29.4531 8.35327 33.4375 10.4626 35.7812 13.3314C35.7031 13.3314 35.7031 13.3314 35.625 13.3314C33.5156 13.3314 31.6406 13.7533 30.2344 14.597C28.8281 13.7533 27.0312 13.3314 24.8437 13.3314C22.8906 13.3314 21.0156 13.8376 19.6094 14.597Z" fill="#44C4A1"/>
<path d="M34.0625 34.8469H15.9375V53.2407H34.0625V34.8469Z" fill="white"/>
<path d="M31.25 37.8845H18.75V50.2033H31.25V37.8845Z" fill="#FFBF5D"/>
<path d="M22.4219 41.2594V34.8469H27.5781V41.2594L25 38.8125L22.4219 41.2594Z" fill="white"/>
<path d="M41.7969 18.9844C41.7188 12.15 34.5312 4.64062 25 4.64062C15.3906 4.64062 8.20312 12.3188 8.20312 19.1531C8.20312 19.3219 8.28125 19.575 8.4375 19.6594L23.2031 34.0875C19.7656 34.0875 25.5469 34.0875 15.9375 34.0875C15.5469 34.0875 15.2344 34.425 15.2344 34.8469V53.2406C15.2344 53.6625 15.5469 54 15.9375 54H34.0625C34.4531 54 34.7656 53.6625 34.7656 53.2406V34.8469C34.7656 34.425 34.4531 34.0875 34.0625 34.0875C24.2187 34.0875 32.2656 34.0875 26.7969 34.0875L41.5625 19.6594C41.7969 19.4906 41.875 19.2375 41.7969 18.9844ZM40.3125 18.8156L26.6406 32.2313L31.0156 19.4062L31.0938 19.1531C31.0938 18.3938 32.8906 17.2125 35.7812 17.2125C38.2812 17.1281 40 18.0562 40.3125 18.8156ZM20.3125 19.0688C20.4688 18.3094 22.2656 17.2125 25 17.2125C27.7344 17.2125 29.5312 18.3094 29.6875 19.0688L25 32.6531L20.3125 19.0688ZM25 6.15938C32.6562 6.15938 38.5938 11.3063 40.0781 16.6219C38.9844 16.0313 37.5 15.6094 35.7812 15.6094C33.3594 15.6094 31.4063 16.2844 30.3906 17.3813C28.2031 14.9344 21.875 14.9344 19.6875 17.3813C18.6719 16.2844 16.7187 15.6094 14.2969 15.6094C12.5781 15.6094 11.0938 15.9469 10 16.6219C11.4062 11.3063 17.3438 6.15938 25 6.15938ZM14.2969 17.1281C17.1094 17.1281 18.9844 18.3094 18.9844 19.0688C18.9844 19.3219 23.3594 31.9781 23.4375 32.1469L9.6875 18.8156C10 18.0562 11.7187 17.1281 14.2969 17.1281ZM33.3594 52.4813H16.6406V35.6063H21.7187V41.2594C21.7187 41.5969 21.875 41.85 22.1094 41.9344C22.3437 42.0187 22.6562 42.0187 22.8906 41.85L25 39.825L27.1094 41.85C27.3438 42.0187 27.5781 42.1031 27.8906 41.9344C28.125 41.85 28.2812 41.5125 28.2812 41.2594V35.6063H33.3594V52.4813ZM26.875 39.5719L25.4687 38.2219C25.3125 38.0531 25.1562 38.0531 25 38.0531C24.8438 38.0531 24.6875 38.1375 24.5312 38.2219L23.125 39.5719V35.6063H26.875V39.5719Z" fill="#193651"/>
<path d="M21.875 46.6594H20.4688V48.1782H21.875V46.6594Z" fill="#193651"/>
<path d="M25.7031 46.6594H24.2969V48.1782H25.7031V46.6594Z" fill="#193651"/>
<path d="M29.5312 46.6594H28.125V48.1782H29.5312V46.6594Z" fill="#193651"/>
</svg>
