<svg width="32" height="86" viewBox="0 0 32 86" fill="none" xmlns="http://www.w3.org/2000/svg">
<path d="M2.54793 0.665491C4.94228 -0.710209 7.99851 0.11557 9.37421 2.50992L30.9456 40.0541C32.3213 42.4484 31.4956 45.5047 29.1012 46.8804C26.7069 48.2561 23.6506 47.4303 22.2749 45.0359L0.703504 7.49177C-0.672196 5.09742 0.153585 2.04119 2.54793 0.665491Z" fill="white"/>
<path d="M2.50992 84.4787C4.90427 85.8544 7.9605 85.0287 9.3362 82.6343L30.9076 45.0902C32.2833 42.6958 31.4575 39.6396 29.0632 38.2639C26.6688 36.8882 23.6126 37.714 22.2369 40.1083L0.66549 77.6525C-0.71021 80.0468 0.115571 83.103 2.50992 84.4787Z" fill="white"/>
</svg>
