<svg width="32" height="86" viewBox="0 0 32 86" fill="none" xmlns="http://www.w3.org/2000/svg">
<path d="M29.0634 0.665491C26.669 -0.710209 23.6128 0.11557 22.2371 2.50992L0.665699 40.0541C-0.710003 42.4484 0.115778 45.5047 2.51013 46.8804C4.90448 48.2561 7.96071 47.4303 9.33641 45.0359L30.9078 7.49177C32.2835 5.09742 31.4577 2.04119 29.0634 0.665491Z" fill="white"/>
<path d="M29.1014 84.4787C26.7071 85.8544 23.6508 85.0287 22.2751 82.6343L0.703712 45.0902C-0.671989 42.6958 0.153791 39.6396 2.54814 38.2639C4.94249 36.8882 7.99872 37.714 9.37442 40.1083L30.9458 77.6525C32.3215 80.0468 31.4958 83.103 29.1014 84.4787Z" fill="white"/>
</svg>
