<svg width="36" height="36" viewBox="0 0 36 36" fill="none" xmlns="http://www.w3.org/2000/svg">
<path d="M36 18C36 27.941 27.941 36 18 36C8.059 36 0 27.941 0 18C0 8.059 8.059 0 18 0C27.941 0 36 8.059 36 18Z" fill="#FFCC4D"/>
<path d="M27.3351 23.129C27.1571 22.968 26.8911 22.958 26.7001 23.1C26.6611 23.129 22.7781 26 18.0001 26C13.2341 26 9.33813 23.129 9.30013 23.1C9.10913 22.958 8.84314 22.97 8.66514 23.129C8.48814 23.289 8.44814 23.553 8.57113 23.757C8.70013 23.971 11.7881 29 18.0001 29C24.2121 29 27.3011 23.972 27.4291 23.757C27.5521 23.552 27.5131 23.289 27.3351 23.129Z" fill="#664500"/>
<path d="M24.5 11C23.1193 11 22 12.567 22 14.5C22 16.433 23.1193 18 24.5 18C25.8807 18 27 16.433 27 14.5C27 12.567 25.8807 11 24.5 11Z" fill="#664500"/>
<path d="M11.5 11C10.1193 11 9 12.567 9 14.5C9 16.433 10.1193 18 11.5 18C12.8807 18 14 16.433 14 14.5C14 12.567 12.8807 11 11.5 11Z" fill="#664500"/>
</svg>
